<svg width="131" height="131" viewBox="0 0 131 131" fill="none" xmlns="http://www.w3.org/2000/svg">
<path d="M79.0346 116.692C77.7607 118.003 75.961 118.657 73.5321 118.69L58.2275 118.909C50.6462 119.018 50.5658 113.322 50.5257 110.585C50.6801 92.5208 50.7585 83.9538 50.8001 79.8756L36.9168 83.0867C32.4347 84.4884 28.0596 83.2463 25.1906 79.7511C21.7086 75.5064 21.4186 68.9805 24.4721 63.5137L52.9094 12.6012C56.0106 7.04081 60.7703 4.09486 65.5972 4.65921C69.5316 5.12043 73.1595 7.82464 75.8133 12.2729L105.688 62.3561C109.538 68.8061 107.429 75.7189 103.842 79.4103C100.904 82.433 96.9786 83.4971 93.5668 82.2063L80.8469 78.4033C80.8743 82.6963 80.9174 91.5802 80.9929 110.08C81.0229 112.174 80.8273 114.848 79.0346 116.692Z" fill="#464B56"/>
<path d="M58.6987 30.3194C58.2655 30.7652 57.568 30.887 56.998 30.5675C56.3163 30.1887 56.0723 29.3271 56.4531 28.6454L58.0875 25.7191C58.4643 25.0374 59.3269 24.7944 60.0097 25.1742C60.6913 25.553 60.9344 26.4156 60.5546 27.0963L58.9202 30.0226C58.8568 30.1344 58.7823 30.2333 58.6987 30.3194Z" fill="#CDDC39"/>
<path d="M43.7943 57.0023C43.3602 57.449 42.6636 57.5698 42.0937 57.2503C41.412 56.8715 41.1679 56.0099 41.5488 55.3282L53.3635 34.1757C53.7433 33.489 54.603 33.251 55.2857 33.6308C55.9674 34.0097 56.2105 34.8723 55.8316 35.552L44.0168 56.7044C43.9555 56.8181 43.879 56.9151 43.7943 57.0023Z" fill="#CDDC39"/>
<path d="M79.0346 116.692C77.7607 118.003 75.961 118.657 73.5321 118.69L58.2275 118.909C50.6462 119.018 50.5658 113.322 50.5257 110.585C50.6801 92.5208 50.7585 83.9538 50.8001 79.8756L36.9168 83.0867C32.4347 84.4884 28.0596 83.2463 25.1906 79.7511C21.7086 75.5064 21.4186 68.9805 24.4721 63.5137L52.9094 12.6012C56.0106 7.04081 60.7703 4.09486 65.5972 4.65921C69.5316 5.12043 73.1595 7.82464 75.8133 12.2729L105.688 62.3561C109.538 68.8061 107.429 75.7189 103.842 79.4103C100.904 82.4331 96.9786 83.4971 93.5667 82.2063L80.8469 78.4033C80.8743 82.6963 80.9174 91.5802 80.9929 110.08C81.0229 112.174 80.8273 114.848 79.0346 116.692ZM56.4841 113.086C56.492 113.078 56.8755 113.279 58.1469 113.262L73.4514 113.043C74.7078 113.025 74.9797 112.76 74.9826 112.756C75.023 112.715 75.3736 112.291 75.3418 110.135C75.3051 100.647 75.1971 75.9637 75.1704 74.7304C75.1299 73.8499 75.5013 72.9995 76.1865 72.4303C76.913 71.8266 77.8961 71.6277 78.801 71.8945L95.2899 76.8254C95.3682 76.8502 95.4455 76.8761 95.5218 76.9069C97.4467 77.6706 99.2749 76.0022 99.7888 75.4734C101.922 73.2783 103.161 69.144 100.836 65.2524L70.9619 15.1692C69.2281 12.2631 67.0895 10.5236 64.9402 10.2706C62.8049 10.0214 61.0611 11.303 59.9723 12.4234C59.2044 13.2135 58.4863 14.2017 57.8415 15.3557L29.4043 66.2702C27.1748 70.2628 27.8762 74.1197 29.5588 76.1704C30.9638 77.8825 33.0022 78.4157 35.2981 77.6747C35.3747 77.6486 35.4533 77.6285 35.53 77.6104L53.0254 73.5625C53.8986 73.3612 54.8158 73.5848 55.4984 74.1674C56.179 74.7501 56.5451 75.6219 56.4819 76.5159C56.4654 77.2423 56.2545 101.352 56.1745 110.571C56.2044 112.459 56.3994 112.958 56.4841 113.086Z" fill="#CDDC39"/>
</svg>
