<svg width="20" height="20" viewBox="0 0 20 20" fill="none" xmlns="http://www.w3.org/2000/svg">
<path d="M10 20C15.5228 20 20 15.5228 20 10C20 4.47715 15.5228 0 10 0C4.47715 0 0 4.47715 0 10C0 15.5228 4.47715 20 10 20Z" fill="#3F65A6"/>
<path d="M8.48047 6.71094C8.48047 7 8.48047 8.28906 8.48047 8.28906H7.32422V10.2188H8.48047V15.5078H10.8555V10.2148H12.4492C12.4492 10.2148 12.5977 9.28906 12.6719 8.27734C12.4648 8.27734 10.8672 8.27734 10.8672 8.27734C10.8672 8.27734 10.8672 7.15625 10.8672 6.95703C10.8672 6.76172 11.125 6.49609 11.3828 6.49609C11.6367 6.49609 12.1758 6.49609 12.6758 6.49609C12.6758 6.23438 12.6758 5.32422 12.6758 4.48828C12.0078 4.48828 11.25 4.48828 10.918 4.48828C8.42187 4.49219 8.48047 6.42188 8.48047 6.71094Z" fill="white"/>
</svg>
