<svg width="20" height="20" viewBox="0 0 20 20" fill="none" xmlns="http://www.w3.org/2000/svg">
<path d="M10 20C15.5228 20 20 15.5228 20 10C20 4.47715 15.5228 0 10 0C4.47715 0 0 4.47715 0 10C0 15.5228 4.47715 20 10 20Z" fill="#959698"/>
<path d="M17.4779 11.0285L16.6426 8.45792L14.9871 3.36315C14.902 3.10118 14.5311 3.10118 14.446 3.36315L12.7906 8.45792H7.2939L5.63851 3.36315C5.55336 3.10118 5.18251 3.10118 5.09736 3.36315L3.44209 8.45804L2.60668 11.0285C2.56952 11.1428 2.5695 11.2659 2.60662 11.3802C2.64374 11.4945 2.71609 11.5941 2.8133 11.6648L10.0423 16.9167L17.2711 11.6647C17.3683 11.594 17.4406 11.4944 17.4777 11.3802C17.5149 11.2659 17.5149 11.1428 17.4777 11.0285" fill="#F3F3F3"/>
<path d="M10.0423 16.9167L12.7907 8.45802H7.29395L10.0423 16.9165V16.9167Z" fill="#F3F3F3"/>
<path d="M10.0422 16.9167L7.29383 8.45802H3.44202L10.0422 16.9165V16.9167Z" fill="#F3F3F3"/>
<path d="M3.4421 8.45792L2.60657 11.0285C2.5694 11.1428 2.56938 11.2659 2.6065 11.3802C2.64362 11.4945 2.71597 11.594 2.81319 11.6647L10.0423 16.9167L3.4421 8.45804V8.45792Z" fill="#F3F3F3"/>
<path d="M3.44202 8.45792H7.29382L5.63844 3.36315C5.55329 3.10118 5.18243 3.10118 5.09729 3.36315L3.44202 8.45804V8.45792Z" fill="#F3F3F3"/>
<path d="M10.0422 16.9167L12.7906 8.45802H16.6425L10.0422 16.9165V16.9167Z" fill="#F3F3F3"/>
<path d="M16.6424 8.45792L17.4778 11.0285C17.515 11.1428 17.515 11.2659 17.4779 11.3802C17.4408 11.4945 17.3684 11.594 17.2712 11.6647L10.0422 16.9167L16.6424 8.45804V8.45792Z" fill="#F3F3F3"/>
<path d="M16.6426 8.4579H12.7909L14.4463 3.36325C14.5314 3.10129 14.9023 3.10129 14.9874 3.36325L16.6428 8.45802L16.6426 8.4579Z" fill="#F3F3F3"/>
</svg>
