<svg width="240" height="240" viewBox="0 0 240 240" fill="none" xmlns="http://www.w3.org/2000/svg">
<path d="M120 240C186.274 240 240 186.274 240 120C240 53.7258 186.274 0 120 0C53.7258 0 0 53.7258 0 120C0 186.274 53.7258 240 120 240Z" fill="#E24329"/>
<path d="M196.712 130.205L188.104 103.634L171.01 51.0335C170.137 48.3222 166.315 48.3222 165.442 51.0335L148.348 103.634H91.6478L74.5535 51.0636C73.6807 48.3523 69.8586 48.3523 68.9858 51.0335L51.8915 103.634L43.2841 130.205C42.5017 132.615 43.3744 135.266 45.4209 136.773L119.998 191L194.575 136.773C196.652 135.297 197.494 132.645 196.712 130.205Z" fill="white"/>
</svg>
