<svg width="128" height="128" viewBox="0 0 128 128" fill="none" xmlns="http://www.w3.org/2000/svg">
<circle cx="64" cy="64" r="64" fill="#959698"/>
<path fill-rule="evenodd" clip-rule="evenodd" d="M43 28C34.7157 28 28 34.7157 28 43V85C28 93.2843 34.7157 100 43 100H85C93.2843 100 100 93.2843 100 85V43C100 34.7157 93.2843 28 85 28H43ZM45 36C40.0294 36 36 40.0294 36 45V83C36 87.9706 40.0294 92 45 92H83C87.9706 92 92 87.9706 92 83V45C92 40.0294 87.9706 36 83 36H45Z" fill="#F3F3F3"/>
<path fill-rule="evenodd" clip-rule="evenodd" d="M64 80C72.8366 80 80 72.8366 80 64C80 55.1634 72.8366 48 64 48C55.1634 48 48 55.1634 48 64C48 72.8366 55.1634 80 64 80ZM64 72C68.4183 72 72 68.4183 72 64C72 59.5817 68.4183 56 64 56C59.5817 56 56 59.5817 56 64C56 68.4183 59.5817 72 64 72Z" fill="#F3F3F3"/>
<circle cx="82" cy="46" r="5" fill="#F3F3F3"/>
</svg>
