<svg width="20" height="20" viewBox="0 0 20 20" fill="none" xmlns="http://www.w3.org/2000/svg">
<path d="M2.92776 17.0797C2.45219 16.6141 2.03507 16.096 1.66832 15.5417C0.942879 14.4472 0.453208 13.2559 0.193259 11.9678C0.0340657 11.1756 -0.0284026 10.3734 0.0118995 9.56707C0.120715 7.37597 0.854214 5.41466 2.23859 3.71136C3.62096 2.01008 5.38216 0.881268 7.50205 0.320894C8.03203 0.179792 8.57208 0.0931158 9.12019 0.0427225C9.67434 -0.00767091 10.2265 -0.0157339 10.7786 0.030628C12.8441 0.197934 14.6839 0.92763 16.3 2.22375C16.568 2.43742 16.8219 2.66721 17.0658 2.9091C17.0839 2.92724 17.1121 2.93732 17.1141 2.96957C17.1061 3.0119 17.0718 3.0381 17.0436 3.06632C16.1287 3.97945 15.2219 4.90266 14.297 5.80571C13.5595 6.52533 12.8381 7.26308 12.1025 7.98472C12.0763 8.01092 12.0522 8.03914 12.0219 8.0593C11.9756 8.08752 11.9272 8.10566 11.8769 8.1238C11.4174 8.29917 11.0607 8.60556 10.7847 9.0067C10.7645 9.03693 10.7464 9.06918 10.7202 9.09539C10.7 9.11555 10.6779 9.13167 10.6557 9.0974C10.6315 9.03492 10.6416 8.97243 10.6416 8.90792C10.6396 8.69829 10.6416 8.48664 10.6416 8.27498C10.6416 8.2387 10.6476 8.2004 10.6255 8.16815C10.5872 8.12784 10.5388 8.13791 10.4925 8.13791C9.79928 8.13791 9.10406 8.13791 8.41087 8.13791C8.27182 8.13791 8.26175 8.14396 8.26779 8.28708C8.29399 9.19214 8.28593 10.0972 8.28795 11.0043C8.28795 11.2381 8.28996 11.474 8.28593 11.7078C8.28996 11.9255 8.28795 12.1412 8.28795 12.3589C8.28795 12.3951 8.28795 12.4334 8.26779 12.4657C8.23152 12.502 8.22145 12.4697 8.21742 12.4435C8.20533 12.3911 8.21137 12.3367 8.21137 12.2843C8.21137 12.1472 8.20936 12.0101 8.21339 11.869C8.15898 11.9154 8.11465 11.9638 8.0683 12.0122C7.72775 12.3669 7.361 12.6975 7.01238 13.0442C6.98216 13.0724 6.9479 13.1631 6.88543 13.0704C6.87536 13.014 6.87939 12.9555 6.87939 12.8991C6.87939 11.3651 6.87939 9.82911 6.87939 8.29514C6.87939 8.24676 6.89349 8.19234 6.84714 8.15404C6.80684 8.13388 6.76251 8.13791 6.71818 8.13791C6.03304 8.13791 5.3479 8.13791 4.66478 8.13791C4.50559 8.13791 4.50357 8.13993 4.50357 8.3032C4.50357 10.589 4.50357 12.8769 4.50357 15.1627C4.50357 15.2273 4.50357 15.2897 4.50357 15.3542C4.49954 15.3925 4.51768 15.4187 4.55194 15.4349C4.55798 15.4429 4.56201 15.451 4.56403 15.4611C4.56201 15.5074 4.52776 15.5316 4.49954 15.5598C4.00383 16.0497 3.49804 16.5294 3.01038 17.0293C2.98015 17.0495 2.96202 17.0737 2.92776 17.0797Z" fill="#0176B4"/>
<path d="M4.54382 15.4651C4.54382 15.459 4.54382 15.453 4.54382 15.4469C4.5942 15.3986 4.65667 15.4127 4.71511 15.4127C5.37002 15.4107 6.02493 15.4127 6.67984 15.4127C6.71611 15.4127 6.7544 15.4127 6.79067 15.4107C6.83903 15.4086 6.86321 15.3844 6.86523 15.3341C6.86724 15.2998 6.86724 15.2675 6.86724 15.2333C6.86724 14.7898 6.86724 14.3463 6.86724 13.9029C6.86724 13.8525 6.86523 13.8021 6.87329 13.7517C6.89545 13.6771 6.93172 13.7074 6.96397 13.7436C7.06875 13.8565 7.16346 13.9775 7.2622 14.0944C7.57253 14.4612 7.88487 14.8281 8.19117 15.199C8.21736 15.2292 8.24557 15.2575 8.25363 15.2998C8.25565 15.3865 8.30603 15.4107 8.38462 15.4107C9.09393 15.4086 9.80124 15.4107 10.5106 15.4086C10.6234 15.4086 10.6335 15.3965 10.6335 15.2655C10.6335 14.3665 10.6335 13.4655 10.6335 12.5665C10.6335 12.1371 10.6335 11.7078 10.6335 11.2764C10.6335 11.1615 10.6415 11.0486 10.6738 10.9378C10.71 10.8732 10.7443 10.9055 10.7725 10.9438C10.8491 11.0385 10.9196 11.1353 10.9901 11.232C11.5121 11.9436 12.038 12.6511 12.5619 13.3607C12.7695 13.6408 12.977 13.923 13.1826 14.2032C13.2007 14.2274 13.2189 14.2516 13.2269 14.2818C13.243 14.5741 13.2309 14.8664 13.235 15.1587C13.235 15.193 13.235 15.2252 13.235 15.2595C13.237 15.3986 13.2471 15.4107 13.3841 15.4107C13.636 15.4107 13.8879 15.4107 14.1398 15.4107C14.5871 15.4107 15.0325 15.4107 15.4798 15.4107C15.643 15.4107 15.6531 15.4026 15.6531 15.2433C15.6531 13.913 15.6692 12.5846 15.645 11.2542C15.633 10.6273 15.5524 10.0025 15.2763 9.42192C15.1231 9.09941 14.9136 8.81922 14.6516 8.57935C14.6254 8.55516 14.5932 8.53299 14.577 8.49872C14.569 8.43825 14.6093 8.45236 14.6395 8.46042C14.6818 8.47252 14.7181 8.49872 14.7564 8.51888C15.3508 8.84341 15.9473 9.16593 16.5418 9.48844C16.9609 9.71622 17.3801 9.94198 17.7972 10.1698C18.3191 10.452 18.841 10.7342 19.3629 11.0204C19.4899 11.0889 19.6168 11.1575 19.7438 11.226C19.8042 11.2583 19.8748 11.2804 19.911 11.349C19.8889 11.5929 19.8425 11.8348 19.7901 12.0726C19.7035 12.4758 19.5967 12.8749 19.4596 13.2659C19.2481 13.8666 18.9841 14.4411 18.6677 14.9934C18.3937 15.4671 18.0833 15.9146 17.7387 16.3379C17.5715 16.5435 17.3841 16.733 17.2108 16.9325C17.0093 17.1603 16.7816 17.3578 16.5539 17.5574C16.1629 17.9021 15.7418 18.2065 15.3005 18.4867C14.9357 18.7164 14.5549 18.92 14.166 19.1015C13.5997 19.3635 13.0093 19.5671 12.4027 19.7162C12.0179 19.811 11.6289 19.8815 11.238 19.9319C11.0587 19.9561 10.8753 19.9662 10.6939 19.9803C10.2849 20.0126 9.87781 19.9964 9.46874 19.9924C9.20879 19.9884 8.95086 19.9521 8.69091 19.9198C8.2355 19.8634 7.78814 19.7707 7.34684 19.6538C6.95994 19.551 6.58311 19.422 6.21233 19.2708C6.12971 19.2365 6.04105 19.2123 5.97052 19.1539C5.9282 19.1176 5.91007 19.0672 5.88991 19.0168C5.47682 17.9464 5.06574 16.8741 4.65465 15.8037C4.61234 15.6949 4.54987 15.588 4.54382 15.4651Z" fill="#0176B4"/>
<path d="M19.9131 11.353C19.2602 10.9982 18.6053 10.6435 17.9524 10.2887C17.4144 9.99641 16.8743 9.70413 16.3363 9.40983C15.7741 9.10344 15.2118 8.79907 14.6516 8.49066C14.6275 8.47655 14.6033 8.46848 14.5751 8.4705C14.5227 8.47856 14.4864 8.44228 14.4501 8.41608C14.0531 8.14395 13.6098 8.01293 13.1322 7.96858C12.7937 7.93835 12.4632 7.96657 12.1348 8.04518C12.0965 8.05324 12.0582 8.07542 12.0199 8.04317C12.0461 8.01293 12.0723 7.98269 12.1005 7.95447C12.7393 7.31549 13.37 6.66844 14.0189 6.03953C15.0446 5.04174 16.0441 4.01976 17.0617 3.01391C17.0778 2.99779 17.096 2.98368 17.1141 2.96755C17.3418 3.17316 17.5373 3.40497 17.7307 3.64081C18.7 4.82404 19.367 6.16047 19.7257 7.64808C19.8406 8.1238 19.9171 8.60555 19.9615 9.09135C19.9998 9.50457 20.0038 9.91578 19.9977 10.329C19.9897 10.6717 19.9514 11.0123 19.9131 11.353Z" fill="#0176B4"/>
<path d="M4.54385 15.4651C4.69296 15.8017 4.81185 16.1484 4.94687 16.4911C5.1786 17.0837 5.40429 17.6763 5.632 18.2689C5.74485 18.5653 5.85971 18.8616 5.97255 19.1579C5.45064 18.9382 4.95694 18.662 4.48541 18.3496C3.92521 17.9787 3.40128 17.5594 2.93176 17.0777C3.07282 16.9345 3.21186 16.7874 3.35292 16.6463C3.72571 16.2774 4.09851 15.9126 4.4713 15.5457C4.49548 15.5215 4.51966 15.4913 4.54385 15.4651Z" fill="#0176B4"/>
<path d="M12.0179 8.04518C12.6748 7.86779 13.3236 7.88997 13.9624 8.12984C14.1841 8.21248 14.3836 8.33544 14.573 8.47251C15.1977 8.98249 15.4879 9.66986 15.6007 10.4459C15.6612 10.8652 15.6793 11.2865 15.6773 11.7098C15.6712 12.9112 15.6753 14.1125 15.6773 15.3159C15.6773 15.4147 15.6531 15.449 15.5483 15.4469C14.8027 15.4429 14.0592 15.4429 13.3136 15.4469C13.233 15.4469 13.2108 15.4248 13.2108 15.3462C13.2148 15.0277 13.2128 14.7092 13.2128 14.3887C13.2128 14.3443 13.2088 14.302 13.2068 14.2577C13.1665 14.2053 13.1765 14.1428 13.1765 14.0823C13.1765 13.153 13.1806 12.2238 13.1745 11.2945C13.1725 10.9821 13.11 10.6818 12.9529 10.4056C12.7554 10.0629 12.4471 9.91174 12.0642 9.88957C11.4415 9.8553 10.97 10.2464 10.7705 10.7846C10.7544 10.8289 10.7483 10.8773 10.71 10.9095C10.6738 11.0446 10.6697 11.1817 10.6697 11.3187C10.6697 12.6491 10.6697 13.9795 10.6697 15.3099C10.6697 15.4691 10.6818 15.4429 10.5347 15.4429C9.81333 15.4429 9.08991 15.4429 8.3685 15.4429C8.23147 15.4429 8.23147 15.4429 8.22946 15.3038C8.22946 15.2897 8.22744 15.2776 8.22543 15.2635C8.19923 15.2151 8.1952 15.1627 8.1952 15.1083C8.1952 14.2839 8.1952 13.4594 8.1952 12.637C8.1952 12.5846 8.18512 12.5282 8.23147 12.4858C8.25364 12.2702 8.23752 12.0525 8.24356 11.8368C8.24558 11.7965 8.24558 11.7561 8.24759 11.7178C8.27177 11.6735 8.30603 11.6372 8.34029 11.6009C9.0355 10.9055 9.72466 10.202 10.43 9.51666C10.8833 9.07723 11.3247 8.62772 11.774 8.18426C11.8063 8.15403 11.8425 8.13185 11.8748 8.10363C11.9231 8.08348 11.9715 8.06332 12.0179 8.04518Z" fill="#FEFEFE"/>
<path d="M4.46326 15.4046C4.46124 15.3703 4.45923 15.3381 4.45923 15.3038C4.45923 12.9434 4.45923 10.585 4.45721 8.22458C4.45721 8.13185 4.47334 8.10162 4.57409 8.10162C5.3096 8.10565 6.0431 8.10363 6.77861 8.10363C6.81287 8.10363 6.84511 8.10565 6.87937 8.10766C6.89751 8.13991 6.88944 8.17418 6.88944 8.20643C6.88944 9.80088 6.88944 11.3953 6.89146 12.9898C6.89146 13.0704 6.86728 13.1289 6.81086 13.1853C6.08743 13.9049 5.36804 14.6286 4.64462 15.3482C4.59626 15.3986 4.54991 15.4792 4.46326 15.4046Z" fill="#FEFEFE"/>
<path d="M11.8768 8.10363C11.8627 8.14395 11.8285 8.16612 11.8003 8.19434C11.4375 8.55717 11.0809 8.92806 10.7101 9.28282C9.89396 10.0629 9.11209 10.8752 8.31008 11.6654C8.29194 11.6835 8.26978 11.6997 8.24963 11.7158C8.24963 11.4981 8.24761 11.2804 8.24761 11.0627C8.24761 10.1093 8.25164 9.15785 8.23149 8.20442C8.22948 8.11774 8.25567 8.10162 8.33628 8.10162C9.07985 8.10363 9.82544 8.10363 10.569 8.10565C10.6013 8.10565 10.6617 8.06937 10.6657 8.14596C10.6476 8.39188 10.6617 8.6378 10.6577 8.88371C10.6557 8.9462 10.6577 9.0107 10.6577 9.07319C10.6577 9.09133 10.6537 9.11552 10.6859 9.10947C10.9781 8.65191 11.3529 8.29109 11.8768 8.10363Z" fill="#FEFEFE"/>
<path d="M5.66829 7.11794C5.15645 7.10383 4.72723 6.92846 4.46728 6.46283C4.02799 5.67468 4.51363 4.72527 5.40834 4.6003C5.46073 4.59223 5.51313 4.56804 5.5635 4.56603C6.04512 4.55998 6.48643 4.67085 6.79272 5.07601C7.32068 5.77345 7.0426 6.85993 6.03504 7.07762C5.91816 7.10383 5.79323 7.11995 5.66829 7.11794Z" fill="#FEFEFE"/>
<path d="M4.46331 15.4046C4.50966 15.4369 4.5419 15.4147 4.57616 15.3804C5.32779 14.6265 6.08143 13.8747 6.83508 13.1228C6.87941 13.0785 6.87941 13.0301 6.87941 12.9757C6.87941 11.353 6.87941 9.73033 6.87941 8.10968C6.91972 8.13588 6.89755 8.17822 6.89755 8.21047C6.89956 9.82305 6.89956 11.4356 6.89956 13.0462C6.89956 13.0664 6.90158 13.0865 6.90158 13.1067C6.92173 13.1268 6.92778 13.153 6.92979 13.1792C6.93382 13.3324 6.93382 13.4856 6.92979 13.6388C6.92979 13.665 6.92375 13.6912 6.90158 13.7114C6.89957 14.2476 6.89553 14.7858 6.89956 15.322C6.89956 15.4187 6.87538 15.4449 6.77866 15.4429C6.07136 15.4389 5.36204 15.4409 4.65474 15.4409C4.61847 15.4409 4.58019 15.4429 4.54391 15.4449C4.51772 15.4288 4.46129 15.4752 4.46331 15.4046Z" fill="#FEFEFE"/>
<path d="M6.90155 13.7114C6.90155 13.5098 6.90155 13.3083 6.90155 13.1067C6.9217 13.0885 6.94185 13.0724 6.962 13.0543C7.36301 12.6592 7.76401 12.2641 8.16502 11.8711C8.17912 11.857 8.19525 11.8449 8.23152 11.8106C8.23152 12.0505 8.23152 12.2682 8.23152 12.4859C8.23152 13.0422 8.23152 13.6005 8.23152 14.1569C8.23152 14.5257 8.22749 14.8946 8.22547 15.2635C8.07232 15.1184 7.95142 14.945 7.81238 14.7878C7.60684 14.554 7.41339 14.3141 7.21188 14.0762C7.11112 13.9533 7.00634 13.8344 6.90155 13.7114Z" fill="#0176B4"/>
<path d="M10.6879 9.11323C10.6678 9.13942 10.6496 9.12733 10.6516 9.10315C10.6557 8.78677 10.6355 8.47241 10.6617 8.15604C10.6617 8.15402 10.6657 8.14999 10.6678 8.14798C10.6698 8.43816 10.6698 8.73035 10.6738 9.02053C10.6718 9.05076 10.6516 9.08703 10.6879 9.11323Z" fill="#FEFEFE"/>
<path d="M10.7101 10.9095C10.7685 10.4459 11.2622 9.95609 11.7458 9.88151C12.1267 9.82306 12.4834 9.8674 12.7816 10.1395C13.0093 10.3471 13.1081 10.6253 13.1665 10.9176C13.2028 11.095 13.2149 11.2764 13.2149 11.4578C13.2149 12.3669 13.2149 13.278 13.2149 14.1871C13.2149 14.2113 13.2108 14.2335 13.2088 14.2576C13.1141 14.181 13.0557 14.0742 12.9831 13.9775C12.5418 13.3848 12.1025 12.7902 11.6652 12.1956C11.3549 11.7763 11.0486 11.355 10.7403 10.9357C10.7322 10.9257 10.7202 10.9176 10.7101 10.9095Z" fill="#0176B4"/>
</svg>
