<svg width="180" height="208" viewBox="0 0 180 208" fill="none" xmlns="http://www.w3.org/2000/svg">
<path d="M16 92C20.4099 92 24 88.412 24 84C24 79.588 20.4099 76 16 76C11.5899 76 8 79.588 8 84C8 88.412 11.5899 92 16 92Z" fill="#464B56"/>
<path d="M20 136C13.3827 136 8 141.383 8 148C8 154.617 13.3827 160 20 160C26.6171 160 32 154.617 32 148C32 141.383 26.6171 136 20 136Z" fill="#464B56"/>
<path d="M80 64C95.4375 64 108 51.4396 108 36C108 20.5604 95.4375 8 80 8C64.5623 8 52 20.5604 52 36C52 51.4396 64.5623 64 80 64Z" fill="#464B56"/>
<path d="M76 168C67.1755 168 60 175.178 60 184C60 192.822 67.1755 200 76 200C84.8243 200 92 192.822 92 184C92 175.178 84.8243 168 76 168Z" fill="#464B56"/>
<path d="M132 132C120.973 132 112 140.973 112 152C112 163.027 120.973 172 132 172C143.027 172 152 163.027 152 152C152 140.973 143.027 132 132 132Z" fill="#464B56"/>
<path d="M148 56C134.766 56 124 66.7656 124 80C124 93.2344 134.766 104 148 104C161.234 104 172 93.2344 172 80C172 66.7656 161.234 56 148 56Z" fill="#464B56"/>
<path d="M80 72C99.8515 72 116 55.8496 116 36C116 16.1504 99.8515 0 80 0C60.1483 0 44 16.1504 44 36C44 55.8496 60.1483 72 80 72Z" fill="#464B56"/>
<path d="M148 48C130.355 48 116 62.3556 116 80C116 97.6444 130.355 112 148 112C165.644 112 180 97.6444 180 80C180 62.3556 165.644 48 148 48Z" fill="#464B56"/>
<path d="M132 124C116.562 124 104 136.56 104 152C104 167.44 116.562 180 132 180C147.438 180 160 167.44 160 152C160 136.56 147.438 124 132 124Z" fill="#464B56"/>
<path d="M76 160C62.7655 160 52 170.766 52 184C52 197.234 62.7655 208 76 208C89.2343 208 100 197.234 100 184C100 170.766 89.2343 160 76 160Z" fill="#464B56"/>
<path d="M20 128C8.9727 128 0 136.973 0 148C0 159.027 8.9727 168 20 168C31.0271 168 40 159.027 40 148C40 136.973 31.0271 128 20 128Z" fill="#464B56"/>
<path d="M16 100C24.8243 100 32 92.8224 32 84C32 75.1776 24.8243 68 16 68C7.1755 68 0 75.1776 0 84C0 92.8224 7.1755 100 16 100Z" fill="#464B56"/>
<path d="M80 72C99.8515 72 116 55.8496 116 36C116 16.1504 99.8515 0 80 0C60.1483 0 44 16.1504 44 36C44 55.8496 60.1483 72 80 72ZM80 8C95.4375 8 108 20.5604 108 36C108 51.4396 95.4375 64 80 64C64.5623 64 52 51.4396 52 36C52 20.5604 64.5623 8 80 8Z" fill="#CDDC39"/>
<path d="M148 48C130.355 48 116 62.3556 116 80C116 97.6444 130.355 112 148 112C165.644 112 180 97.6444 180 80C180 62.3556 165.644 48 148 48ZM148 104C134.766 104 124 93.2344 124 80C124 66.7656 134.766 56 148 56C161.234 56 172 66.7656 172 80C172 93.2344 161.234 104 148 104Z" fill="#CDDC39"/>
<path d="M132 124C116.562 124 104 136.56 104 152C104 167.44 116.562 180 132 180C147.438 180 160 167.44 160 152C160 136.56 147.438 124 132 124ZM132 172C120.973 172 112 163.027 112 152C112 140.973 120.973 132 132 132C143.027 132 152 140.973 152 152C152 163.027 143.027 172 132 172Z" fill="#CDDC39"/>
<path d="M76 160C62.7655 160 52 170.766 52 184C52 197.234 62.7655 208 76 208C89.2343 208 100 197.234 100 184C100 170.766 89.2343 160 76 160ZM76 200C67.1755 200 60 192.822 60 184C60 175.178 67.1755 168 76 168C84.8243 168 92 175.178 92 184C92 192.822 84.8243 200 76 200Z" fill="#CDDC39"/>
<path d="M20 128C8.9727 128 0 136.973 0 148C0 159.027 8.9727 168 20 168C31.0271 168 40 159.027 40 148C40 136.973 31.0271 128 20 128ZM20 160C13.3827 160 8 154.617 8 148C8 141.383 13.3827 136 20 136C26.6171 136 32 141.383 32 148C32 154.617 26.6171 160 20 160Z" fill="#CDDC39"/>
<path d="M16 100C24.8243 100 32 92.8224 32 84C32 75.1776 24.8243 68 16 68C7.1755 68 0 75.1776 0 84C0 92.8224 7.1755 100 16 100ZM16 76C20.4099 76 24 79.588 24 84C24 88.412 20.4099 92 16 92C11.5899 92 8 88.412 8 84C8 79.588 11.5899 76 16 76Z" fill="#CDDC39"/>
</svg>
