<svg width="180" height="208" viewBox="0 0 180 208" fill="none" xmlns="http://www.w3.org/2000/svg">
<path d="M80 72C99.8515 72 116 55.8496 116 36C116 16.1504 99.8515 0 80 0C60.1483 0 44 16.1504 44 36C44 55.8496 60.1483 72 80 72Z" fill="black"/>
<path d="M148 48C130.355 48 116 62.3556 116 80C116 97.6444 130.355 112 148 112C165.644 112 180 97.6444 180 80C180 62.3556 165.644 48 148 48Z" fill="black"/>
<path d="M132 124C116.562 124 104 136.56 104 152C104 167.44 116.562 180 132 180C147.438 180 160 167.44 160 152C160 136.56 147.438 124 132 124Z" fill="black"/>
<path d="M76 160C62.7655 160 52 170.766 52 184C52 197.234 62.7655 208 76 208C89.2343 208 100 197.234 100 184C100 170.766 89.2343 160 76 160Z" fill="black"/>
<path d="M20 128C8.9727 128 0 136.973 0 148C0 159.027 8.9727 168 20 168C31.0271 168 40 159.027 40 148C40 136.973 31.0271 128 20 128Z" fill="black"/>
<path d="M16 100C24.8243 100 32 92.8224 32 84C32 75.1776 24.8243 68 16 68C7.1755 68 0 75.1776 0 84C0 92.8224 7.1755 100 16 100Z" fill="black"/>
</svg>
