<svg width="20" height="20" viewBox="0 0 20 20" fill="none" xmlns="http://www.w3.org/2000/svg">
<path d="M10 20C15.5228 20 20 15.5228 20 10C20 4.47715 15.5228 0 10 0C4.47715 0 0 4.47715 0 10C0 15.5228 4.47715 20 10 20Z" fill="#55ACEE"/>
<path d="M16.1254 7.18672C15.6968 7.37675 15.2358 7.50527 14.7524 7.56267C15.246 7.26694 15.6248 6.79901 15.8036 6.24052C15.3417 6.51451 14.8299 6.71327 14.2857 6.8204C13.8497 6.35603 13.2285 6.06583 12.5406 6.06583C11.2207 6.06583 10.1503 7.13627 10.1503 8.45611C10.1503 8.64346 10.1715 8.82582 10.2125 9.00087C8.22596 8.90122 6.46458 7.94967 5.28557 6.5031C5.07986 6.85605 4.96185 7.26694 4.96185 7.70492C4.96185 8.53401 5.38415 9.26594 6.02517 9.69448C5.63354 9.68218 5.26472 9.57469 4.9426 9.39518C4.94242 9.40534 4.94242 9.4155 4.94242 9.42548C4.94242 10.5836 5.7667 11.5496 6.85996 11.7691C6.6596 11.824 6.448 11.853 6.23035 11.853C6.07598 11.853 5.92642 11.8382 5.7806 11.8104C6.08471 12.7598 6.96727 13.4509 8.01348 13.4704C7.19527 14.1116 6.16475 14.4936 5.04457 14.4936C4.85205 14.4936 4.66131 14.4823 4.47467 14.4601C5.53193 15.1385 6.78866 15.5341 8.13844 15.5341C12.535 15.5341 14.9394 11.8919 14.9394 8.73294C14.9394 8.62938 14.9371 8.52616 14.9324 8.42384C15.3998 8.08693 15.805 7.66606 16.1254 7.18672Z" fill="white"/>
</svg>
