<svg width="100" height="100" viewBox="0 0 100 100" fill="none" xmlns="http://www.w3.org/2000/svg">
<path d="M49.9994 0C77.6132 0 100 22.3863 100 49.9994C100 77.6138 77.6132 99.9995 49.9994 99.9995C22.3856 99.9995 0 77.6138 0 49.9994C0 22.3863 22.3856 0 49.9994 0Z" fill="#0099CC"/>
<path d="M16.7077 66.8806L16.2995 66.8839L16.4879 67.246C21.863 77.5775 31.8463 85.1883 43.787 87.1435L44.3875 87.2418L44.0296 86.7497C39.6084 80.6706 36.3619 73.901 34.428 66.9251L34.3768 66.7404L34.1851 66.7419L16.7077 66.8806ZM38.6258 37.9597H38.4227L38.3811 38.1585C36.7788 45.8214 36.7789 53.7626 38.381 61.4943L38.4226 61.6948L38.6274 61.6935L60.5435 61.5548L60.749 61.5535L60.7875 61.3517C62.2499 53.6917 62.2501 45.8213 60.6479 38.1585L60.6064 37.9597H60.4032H38.6258ZM49.3172 85.4551L49.5157 85.7104L49.7128 85.4539C54.1003 79.7432 57.3043 73.4746 59.3244 66.9269L59.425 66.6007L59.0837 66.6032L40.0111 66.7419L39.6783 66.7444L39.7733 67.0633C41.7244 73.6134 44.9294 79.8137 49.3172 85.4551ZM54.8613 86.957L54.5116 87.4338L55.0973 87.3525C67.6645 85.607 78.2765 77.7177 83.7223 66.7564L83.9032 66.3921L83.4965 66.3952L64.8401 66.5339L64.65 66.5353L64.6005 66.7189C62.6666 73.9022 59.4203 80.7402 54.8613 86.957ZM85.7889 61.3468L85.9735 61.3455L86.0266 61.1686C87.0731 57.68 87.7016 53.9106 87.7016 50C87.7016 45.8802 87.0034 41.8305 85.7464 38.1293L85.6888 37.9597H85.5097H66.021H65.7187L65.7754 38.2566C67.2262 45.8561 67.2952 53.5928 65.9137 61.1908L65.8597 61.4876L66.1614 61.4855L85.7889 61.3468ZM83.1516 32.9113H83.5633L83.3734 32.546C77.8578 21.9336 67.4547 14.3231 55.0965 12.6474L54.5164 12.5688L54.8607 13.0422C59.2815 19.1208 62.4595 25.8218 64.4631 32.7309L64.5154 32.9113H64.7032H83.1516ZM58.9468 32.9113H59.2877L59.1852 32.5861C57.1651 26.1774 54.0303 20.1171 49.7121 14.5452L49.5145 14.2903L49.3169 14.5452C44.9987 20.1171 41.864 26.1774 39.8438 32.5861L39.7413 32.9113H40.0823H58.9468ZM44.0299 13.2499L44.3862 12.7578L43.7868 12.8565C31.9166 14.8116 22.0025 22.2828 16.6269 32.5453L16.4352 32.9113H16.8484H34.3258H34.5154L34.5665 32.7287C36.5003 25.8223 39.6775 19.2603 44.0299 13.2499ZM33.2537 38.2561L33.3098 37.9597H33.0081H14.4903H14.3112L14.2536 38.1293C12.9966 41.8305 12.2984 45.8802 12.2984 50C12.2984 54.0487 12.9267 57.9598 14.1842 61.6627L14.2423 61.8336L14.4228 61.8322L32.9406 61.6935L33.2374 61.6913L33.1847 61.3992C31.8029 53.7302 31.8031 45.9238 33.2537 38.2561ZM92.75 50C92.75 73.5813 73.5813 92.75 50 92.75C26.4187 92.75 7.25 73.5813 7.25 50C7.25 26.4187 26.4187 7.25 50 7.25C73.5813 7.25 92.75 26.4187 92.75 50Z" fill="#B6B6B6" stroke="black" stroke-width="0.5"/>
<path d="M16.5618 56.502L12.6585 42.5017H16.8061L17.9651 47.8635C18.3596 49.8257 18.585 51.439 18.6455 52.7088L18.6682 53.185H19.1449H19.2274H19.7119L19.7272 52.7008C19.7512 51.9402 19.9899 50.4384 20.459 48.16L21.6531 43.0791L21.6533 43.0785L21.7881 42.5016H26.8332L28.0493 48.2338L28.0493 48.2339C28.4601 50.1681 28.7157 51.6578 28.8209 52.7152L28.846 52.9677L29.0559 53.0914L29.064 53.0969C29.0705 53.1012 29.0809 53.108 29.0936 53.1155L29.2112 53.1849H29.3477H29.4046H29.8665L29.903 52.7243C29.9552 52.0647 30.0439 51.2363 30.1714 50.2396L30.1716 50.238C30.2948 49.2481 30.4328 48.4632 30.578 47.8824L30.5781 47.8825L30.5797 47.8756L31.8439 42.5014H34.1212H34.5241H35.8899L35.3593 44.3954L35.3591 44.3961L35.0517 45.487L35.0515 45.4876L32.4495 54.7638L32.4495 54.7639L31.9624 56.502H27.0768L25.4403 49.7475L25.1972 48.4513L25.197 48.4502L25.0376 47.6096L24.7696 45.8829L24.704 45.4596H24.2756H24.1932H23.7753L23.7011 45.8709C23.6754 46.0137 23.6503 46.153 23.6259 46.289C23.5491 46.7157 23.4782 47.1098 23.4103 47.4772L23.4102 47.478C23.1256 49.0318 22.9287 50.0419 22.8137 50.5161C22.8137 50.5162 22.8136 50.5164 22.8136 50.5165L21.3506 56.502H16.5618ZM29.0509 53.088L29.0516 53.0884C29.0507 53.0878 29.05 53.0874 29.0497 53.0872C29.0493 53.0869 29.0496 53.0871 29.0509 53.088Z" fill="white" stroke="black"/>
<path d="M60.2778 45.4858L60.2777 45.486L60.016 46.42L60.0159 46.4202L57.1868 56.5006H52.3011L50.6646 49.7463L50.2655 47.6078L50.113 46.6549L50.1126 46.6519L49.9942 45.8822L49.929 45.4582H49.5H49.4214H49.0071L48.9301 45.8653C48.8783 46.1389 48.8323 46.3953 48.7882 46.6427C48.4221 48.6672 48.1718 49.9554 48.0397 50.5163L46.5753 56.5006H42.6994H42.3387H41.7874L41.6577 56.0387L41.6574 56.0378L39.0286 46.6096L39.0284 46.6086L38.9499 46.3248L38.9496 46.3237L38.7168 45.4897L38.7168 45.4896L37.8831 42.5003H39.2515H42.0324L43.1913 47.8621C43.5673 49.7347 43.7842 51.2809 43.8574 52.5262L43.8574 52.5265C43.8605 52.5783 43.863 52.6071 43.8651 52.6296C43.8671 52.653 43.8686 52.6696 43.8694 52.6979L43.8833 53.1836H44.3692H44.4535H44.9426L44.9534 52.6947C44.9544 52.6519 44.9576 52.6051 44.9618 52.5447C44.9634 52.521 44.9652 52.4951 44.9671 52.4666C45.025 51.6435 45.2597 50.2198 45.6835 48.1585L47.0138 42.5002H50.1098H52.0594L53.2755 48.2324C53.6881 50.1773 53.9436 51.6747 54.0508 52.7338L54.0963 53.1835H54.5483H54.6288H55.0883L55.1271 52.7257C55.1832 52.0635 55.2703 51.2335 55.3958 50.2373L55.3959 50.2366C55.5191 49.2467 55.6571 48.4619 55.8023 47.8811L55.8024 47.8811L55.804 47.8742L57.0684 42.5H59.7302H59.7486H61.1158L60.2778 45.4858Z" fill="white" stroke="black"/>
<path d="M79.5298 50.9341C79.395 50.1277 79.2151 49.1927 78.9895 48.1288L79.5298 50.9341ZM79.5298 50.9341C79.4536 51.5873 79.3966 52.1567 79.3555 52.6413L79.7726 52.6767M82.2953 42.5003H86.3405L82.4114 56.5005H77.5292L75.8892 49.7462L75.4902 47.6083L75.4181 47.1524L75.418 47.1518L75.2185 45.8808L75.1522 45.4583H74.7246H74.6458H74.2285L74.1538 45.8688C74.1016 46.1562 74.0519 46.4298 74.0046 46.6905C73.9192 47.1613 73.8413 47.5904 73.7694 47.9836C73.5352 49.2467 73.3654 50.0949 73.266 50.5162L71.7998 56.5007H67.0125L66.4774 54.585L66.4773 54.5846L65.2176 50.0594L65.2175 50.059L63.9415 45.4899L63.9414 45.4895L63.1092 42.5003H64.4797H67.2569L68.0269 46.0618L68.0269 46.0619L68.4162 47.8624C68.7919 49.7199 69.0071 51.2571 69.0803 52.4953L69.0802 52.4953L69.0811 52.5065C69.0818 52.5155 69.0825 52.5244 69.0833 52.533C69.0886 52.5984 69.0931 52.653 69.0944 52.6979L69.1084 53.1836H69.5942H69.6803H70.1712L70.1802 52.6928C70.1816 52.616 70.1866 52.5214 70.195 52.4194L70.1951 52.4179C70.2602 51.5876 70.4937 50.1739 70.9083 48.1588L72.2406 42.5003H77.2846L78.5004 48.2325C78.9128 50.1775 79.1686 51.6748 79.2758 52.7339L79.3213 53.1836H79.7733H79.8537H80.3131L80.3519 52.7258C80.408 52.0637 80.4951 51.234 80.6225 50.2384L80.6228 50.2359C80.7444 49.2461 80.8822 48.4628 81.0304 47.8838L81.0305 47.8839L81.0328 47.8742L82.2953 42.5003ZM69.1982 52.3389C69.1982 52.3392 69.1982 52.3394 69.1981 52.3397L69.5735 52.3691C69.5755 52.4015 69.5775 52.4337 69.5794 52.4658C69.5801 52.4743 69.5808 52.4829 69.5815 52.4917C69.5867 52.5542 69.5924 52.6229 69.5942 52.682L69.1804 52.6744C69.1814 52.619 69.1838 52.5594 69.1872 52.4978C69.1874 52.4949 69.1876 52.4919 69.1877 52.4889C69.1906 52.4399 69.1941 52.3896 69.1982 52.3389Z" fill="white" stroke="black"/>
</svg>
