<svg width="100" height="100" viewBox="0 0 100 100" fill="none" xmlns="http://www.w3.org/2000/svg">
<path d="M49.9994 0C77.6132 0 100 22.3863 100 49.9994C100 77.6138 77.6132 99.9995 49.9994 99.9995C22.3856 99.9995 0 77.6138 0 49.9994C0 22.3863 22.3856 0 49.9994 0Z" fill="#959698"/>
<path d="M16.7077 66.8806L16.2995 66.8839L16.4879 67.246C21.863 77.5775 31.8463 85.1883 43.787 87.1435L44.3875 87.2418L44.0296 86.7497C39.6084 80.6706 36.3619 73.901 34.428 66.9251L34.3768 66.7404L34.1851 66.7419L16.7077 66.8806ZM38.6258 37.9597H38.4227L38.3811 38.1585C36.7788 45.8214 36.7789 53.7626 38.381 61.4943L38.4226 61.6948L38.6274 61.6935L60.5435 61.5548L60.749 61.5535L60.7875 61.3517C62.2499 53.6917 62.2501 45.8213 60.6479 38.1585L60.6064 37.9597H60.4032H38.6258ZM49.3172 85.4551L49.5157 85.7104L49.7128 85.4539C54.1003 79.7432 57.3043 73.4746 59.3244 66.9269L59.425 66.6007L59.0837 66.6032L40.0111 66.7419L39.6783 66.7444L39.7733 67.0633C41.7244 73.6134 44.9294 79.8137 49.3172 85.4551ZM54.8613 86.957L54.5116 87.4338L55.0973 87.3525C67.6645 85.607 78.2765 77.7177 83.7223 66.7564L83.9032 66.3921L83.4965 66.3952L64.8401 66.5339L64.65 66.5353L64.6005 66.7189C62.6666 73.9022 59.4203 80.7402 54.8613 86.957ZM85.7889 61.3468L85.9735 61.3455L86.0266 61.1686C87.0731 57.68 87.7016 53.9106 87.7016 50C87.7016 45.8802 87.0034 41.8305 85.7464 38.1293L85.6888 37.9597H85.5097H66.021H65.7187L65.7754 38.2566C67.2262 45.8561 67.2952 53.5928 65.9137 61.1908L65.8597 61.4876L66.1614 61.4855L85.7889 61.3468ZM83.1516 32.9113H83.5633L83.3734 32.546C77.8578 21.9336 67.4547 14.3231 55.0965 12.6474L54.5164 12.5688L54.8607 13.0422C59.2815 19.1208 62.4595 25.8218 64.4631 32.7309L64.5154 32.9113H64.7032H83.1516ZM58.9468 32.9113H59.2877L59.1852 32.5861C57.1651 26.1774 54.0303 20.1171 49.7121 14.5452L49.5145 14.2903L49.3169 14.5452C44.9987 20.1171 41.864 26.1774 39.8438 32.5861L39.7413 32.9113H40.0823H58.9468ZM44.0299 13.2499L44.3862 12.7578L43.7868 12.8565C31.9166 14.8116 22.0025 22.2828 16.6269 32.5453L16.4352 32.9113H16.8484H34.3258H34.5154L34.5665 32.7287C36.5003 25.8223 39.6775 19.2603 44.0299 13.2499ZM33.2537 38.2561L33.3098 37.9597H33.0081H14.4903H14.3112L14.2536 38.1293C12.9966 41.8305 12.2984 45.8802 12.2984 50C12.2984 54.0487 12.9267 57.9598 14.1842 61.6627L14.2423 61.8336L14.4228 61.8322L32.9406 61.6935L33.2374 61.6913L33.1847 61.3992C31.8029 53.7302 31.8031 45.9238 33.2537 38.2561ZM92.75 50C92.75 73.5813 73.5813 92.75 50 92.75C26.4187 92.75 7.25 73.5813 7.25 50C7.25 26.4187 26.4187 7.25 50 7.25C73.5813 7.25 92.75 26.4187 92.75 50Z" fill="#F3F3F3" stroke="#27292D" stroke-width="0.5"/>
<path d="M16.5618 56.502L12.6585 42.5017H16.8061L17.9651 47.8635C18.3596 49.8257 18.585 51.439 18.6455 52.7088L18.6682 53.185H19.1449H19.2274H19.7119L19.7272 52.7008C19.7512 51.9402 19.9899 50.4384 20.459 48.16L21.6531 43.0791L21.6533 43.0785L21.7881 42.5016H26.8332L28.0493 48.2338L28.0493 48.2339C28.4601 50.1681 28.7157 51.6578 28.8209 52.7152L28.846 52.9677L29.0559 53.0914L29.064 53.0969C29.0686 53.0999 29.0751 53.1042 29.0831 53.1091C29.0864 53.1111 29.0899 53.1133 29.0936 53.1155L29.2112 53.1849H29.3477H29.4046H29.8665L29.903 52.7243C29.9552 52.0647 30.0439 51.2363 30.1714 50.2396L30.1716 50.2379C30.2948 49.2481 30.4328 48.4632 30.578 47.8824L30.5781 47.8825L30.5797 47.8756L31.8439 42.5014H34.1212H34.5241H35.8899L35.3593 44.3954L35.3591 44.3961L35.0517 45.487L35.0515 45.4876L32.4495 54.7638L32.4495 54.7639L31.9624 56.502H27.0768L25.4403 49.7475L25.1972 48.4513L25.197 48.4502L25.0376 47.6097L24.7696 45.8829L24.704 45.4596H24.2756H24.1932H23.7753L23.7011 45.8709C23.6753 46.0138 23.6503 46.1533 23.6258 46.2895C23.5491 46.716 23.4782 47.1099 23.4103 47.4772L23.4102 47.478C23.1256 49.0318 22.9287 50.0419 22.8137 50.5161C22.8137 50.5162 22.8136 50.5164 22.8136 50.5165L21.3506 56.502H16.5618ZM29.0509 53.088L29.0516 53.0884C29.0504 53.0876 29.0496 53.0871 29.0496 53.0871C29.0496 53.0871 29.05 53.0873 29.0509 53.088Z" fill="#F3F3F3" stroke="#27292D"/>
<path d="M60.2778 45.4858L60.2777 45.486L60.016 46.42L60.0159 46.4202L57.1868 56.5006H52.3011L50.6646 49.7463L50.2655 47.6078L50.113 46.6549L50.1126 46.6519L49.9942 45.8822L49.929 45.4582H49.5H49.4214H49.0071L48.9301 45.8653C48.8783 46.1389 48.8323 46.3952 48.7883 46.6426C48.4221 48.6672 48.1718 49.9554 48.0397 50.5163L46.5753 56.5006H42.6994H42.3387H41.7874L41.6577 56.0387L41.6574 56.0378L39.0286 46.6096L39.0284 46.6086L38.9499 46.3248L38.9495 46.3237L38.7168 45.4897L38.7168 45.4896L37.8831 42.5003H39.2515H42.0324L43.1913 47.862C43.5673 49.7346 43.7842 51.2809 43.8574 52.5262L43.8574 52.5265C43.8605 52.5783 43.863 52.6071 43.8651 52.6296C43.8671 52.653 43.8686 52.6696 43.8694 52.6979L43.8833 53.1836H44.3692H44.4535H44.9426L44.9534 52.6947C44.9544 52.6519 44.9576 52.6051 44.9618 52.5447C44.9634 52.521 44.9652 52.4952 44.9671 52.4666C45.025 51.6435 45.2597 50.2198 45.6835 48.1586L47.0138 42.5002H50.1098H52.0594L53.2755 48.2324C53.6881 50.1773 53.9436 51.6747 54.0508 52.7338L54.0963 53.1835H54.5483H54.6288H55.0883L55.1271 52.7257C55.1832 52.0635 55.2703 51.2335 55.3958 50.2373L55.3959 50.2366C55.5191 49.2467 55.6571 48.4619 55.8023 47.8811L55.8024 47.8811L55.804 47.8742L57.0684 42.5H59.7302H59.7486H61.1158L60.2778 45.4858ZM54.8093 50.9192C54.7306 51.5946 54.6716 52.1802 54.6295 52.6753L55.0457 52.6331C54.9962 52.144 54.9174 51.5725 54.8093 50.9192ZM54.5476 52.6766C54.4975 52.1837 54.4166 51.6021 54.3045 50.9316C54.2289 51.5858 54.1718 52.1559 54.1306 52.6413L54.5476 52.6766Z" fill="#F3F3F3" stroke="#27292D"/>
<mask id="path-5-inside-1" fill="white">
<path d="M81.8992 42.0001L80.546 47.7598C80.3904 48.3677 80.2494 49.1743 80.1265 50.1749C79.9984 51.1765 79.9105 52.0134 79.8537 52.6836H79.7733C79.6634 51.5978 79.4033 50.08 78.9895 48.1288L77.7297 42.1889L77.6893 42.0003H71.8447L70.42 48.051C70.0043 50.0709 69.7645 51.5136 69.6966 52.3788C69.6876 52.4886 69.682 52.594 69.6803 52.6836H69.5942C69.5923 52.6159 69.5851 52.5353 69.5794 52.4658C69.5044 51.196 69.2846 49.6331 68.9056 47.76L68.5156 45.9562L67.6604 42.0003H64.4797H62.4509L63.4599 45.624L64.736 50.1935L65.9957 54.7191L66.633 57.0007H72.1921L73.7521 50.6331C73.8546 50.199 74.0267 49.3386 74.2611 48.0741C74.3729 47.4626 74.4993 46.7641 74.6458 45.9583H74.7246L74.9241 47.2299L74.9974 47.6932L75.4001 49.8511L77.136 57.0005H82.7904L87.0001 42.0003H81.8992V42.0001Z"/>
</mask>
<path d="M81.8992 42.0001L80.546 47.7598C80.3904 48.3677 80.2494 49.1743 80.1265 50.1749C79.9984 51.1765 79.9105 52.0134 79.8537 52.6836H79.7733C79.6634 51.5978 79.4033 50.08 78.9895 48.1288L77.7297 42.1889L77.6893 42.0003H71.8447L70.42 48.051C70.0043 50.0709 69.7645 51.5136 69.6966 52.3788C69.6876 52.4886 69.682 52.594 69.6803 52.6836H69.5942C69.5923 52.6159 69.5851 52.5353 69.5794 52.4658C69.5044 51.196 69.2846 49.6331 68.9056 47.76L68.5156 45.9562L67.6604 42.0003H64.4797H62.4509L63.4599 45.624L64.736 50.1935L65.9957 54.7191L66.633 57.0007H72.1921L73.7521 50.6331C73.8546 50.199 74.0267 49.3386 74.2611 48.0741C74.3729 47.4626 74.4993 46.7641 74.6458 45.9583H74.7246L74.9241 47.2299L74.9974 47.6932L75.4001 49.8511L77.136 57.0005H82.7904L87.0001 42.0003H81.8992V42.0001Z" fill="#F3F3F3"/>
<path d="M81.8992 42.0001H82.8992L80.9257 41.7714L81.8992 42.0001ZM80.546 47.7598L81.5148 48.0079L81.5172 47.9982L81.5195 47.9886L80.546 47.7598ZM80.1265 50.1749L81.1185 50.3018L81.1191 50.2968L80.1265 50.1749ZM79.8537 52.6836V53.6836H80.7725L80.8501 52.768L79.8537 52.6836ZM79.7733 52.6836L78.7784 52.7843L78.8694 53.6836H79.7733V52.6836ZM78.9895 48.1288L79.9677 47.9213L79.9677 47.9213L78.9895 48.1288ZM77.7297 42.1889L78.7079 41.9815L78.7076 41.9798L77.7297 42.1889ZM77.6893 42.0003L78.6672 41.7911L78.498 41.0003H77.6893V42.0003ZM71.8447 42.0003V41.0003H71.0528L70.8713 41.7711L71.8447 42.0003ZM70.42 48.051L69.4466 47.8219L69.4434 47.8356L69.4406 47.8494L70.42 48.051ZM69.6966 52.3788L70.6933 52.4601L70.6936 52.457L69.6966 52.3788ZM69.6803 52.6836V53.6836H70.6621L70.6802 52.7019L69.6803 52.6836ZM69.5942 52.6836L68.5946 52.7123L68.6225 53.6836H69.5942V52.6836ZM69.5794 52.4658L68.5812 52.5248L68.5818 52.536L68.5827 52.5472L69.5794 52.4658ZM68.9056 47.76L69.8859 47.5617L69.8831 47.5486L68.9056 47.76ZM68.5156 45.9562L67.5382 46.1675L67.5382 46.1675L68.5156 45.9562ZM67.6604 42.0003L68.6378 41.789L68.4673 41.0003H67.6604V42.0003ZM62.4509 42.0003V41.0003H61.1345L61.4876 42.2685L62.4509 42.0003ZM63.4599 45.624L62.4965 45.8922L62.4967 45.893L63.4599 45.624ZM64.736 50.1935L65.6993 49.9253L65.6991 49.9245L64.736 50.1935ZM65.9957 54.7191L65.0324 54.9873L65.0326 54.9881L65.9957 54.7191ZM66.633 57.0007L65.6699 57.2697L65.8741 58.0007H66.633V57.0007ZM72.1921 57.0007V58.0007H72.9767L73.1634 57.2386L72.1921 57.0007ZM73.7521 50.6331L74.7234 50.8711L74.7253 50.863L73.7521 50.6331ZM74.2611 48.0741L75.2444 48.2563L75.2448 48.254L74.2611 48.0741ZM74.6458 45.9583V44.9583H73.8112L73.6619 45.7794L74.6458 45.9583ZM74.7246 45.9583L75.7125 45.8032L75.5798 44.9583H74.7246V45.9583ZM74.9241 47.2299L73.9362 47.3849L73.9364 47.3861L74.9241 47.2299ZM74.9974 47.6932L74.0097 47.8493L74.0118 47.863L74.0144 47.8766L74.9974 47.6932ZM75.4001 49.8511L74.4171 50.0346L74.422 50.061L74.4284 50.0871L75.4001 49.8511ZM77.136 57.0005L76.1643 57.2365L76.3498 58.0005H77.136V57.0005ZM82.7904 57.0005V58.0005H83.5484L83.7532 57.2707L82.7904 57.0005ZM87.0001 42.0003L87.9629 42.2705L88.3194 41.0003H87.0001V42.0003ZM81.8992 42.0003H80.8992V43.0003H81.8992V42.0003ZM80.9257 41.7714L79.5725 47.5311L81.5195 47.9886L82.8727 42.2288L80.9257 41.7714ZM79.5773 47.5118C79.4068 48.1775 79.2595 49.0308 79.134 50.053L81.1191 50.2968C81.2393 49.3179 81.3739 48.5579 81.5148 48.0079L79.5773 47.5118ZM79.1346 50.048C79.005 51.0617 78.9154 51.9128 78.8573 52.5991L80.8501 52.768C80.9056 52.114 80.9919 51.2914 81.1184 50.3018L79.1346 50.048ZM79.8537 51.6836H79.7733V53.6836H79.8537V51.6836ZM80.7682 52.5829C80.6529 51.4438 80.3842 49.8849 79.9677 47.9213L78.0112 48.3363C78.4224 50.275 78.6739 51.7518 78.7784 52.7843L80.7682 52.5829ZM79.9677 47.9213L78.7079 41.9815L76.7514 42.3964L78.0112 48.3363L79.9677 47.9213ZM78.7076 41.9798L78.6672 41.7911L76.7115 42.2095L76.7518 42.3981L78.7076 41.9798ZM77.6893 41.0003H71.8447V43.0003H77.6893V41.0003ZM70.8713 41.7711L69.4466 47.8219L71.3934 48.2802L72.8181 42.2295L70.8713 41.7711ZM69.4406 47.8494C69.0244 49.8712 68.7729 51.3675 68.6997 52.3005L70.6936 52.457C70.7561 51.6597 70.9841 50.2705 71.3995 48.2527L69.4406 47.8494ZM68.6999 52.2974C68.6897 52.4232 68.6826 52.5501 68.6805 52.6652L70.6802 52.7019C70.6813 52.638 70.6856 52.5541 70.6933 52.4601L68.6999 52.2974ZM69.6803 51.6836H69.5942V53.6836H69.6803V51.6836ZM70.5938 52.6549C70.5909 52.5536 70.5805 52.4384 70.5761 52.3843L68.5827 52.5472C68.5897 52.6321 68.5936 52.6781 68.5946 52.7123L70.5938 52.6549ZM70.5777 52.4068C70.499 51.0752 70.2705 49.4633 69.8858 47.5617L67.9255 47.9583C68.2987 49.803 68.5098 51.3167 68.5812 52.5248L70.5777 52.4068ZM69.8831 47.5486L69.493 45.7448L67.5382 46.1675L67.9282 47.9713L69.8831 47.5486ZM69.493 45.7449L68.6378 41.789L66.6829 42.2116L67.5382 46.1675L69.493 45.7449ZM67.6604 41.0003H64.4797V43.0003H67.6604V41.0003ZM64.4797 41.0003H62.4509V43.0003H64.4797V41.0003ZM61.4876 42.2685L62.4965 45.8922L64.4232 45.3558L63.4143 41.732L61.4876 42.2685ZM62.4967 45.893L63.7728 50.4624L65.6991 49.9245L64.423 45.355L62.4967 45.893ZM63.7726 50.4616L65.0324 54.9873L66.9591 54.4509L65.6993 49.9253L63.7726 50.4616ZM65.0326 54.9881L65.6699 57.2697L67.5962 56.7316L66.9589 54.4501L65.0326 54.9881ZM66.633 58.0007H72.1921V56.0007H66.633V58.0007ZM73.1634 57.2386L74.7234 50.8711L72.7808 50.3952L71.2208 56.7627L73.1634 57.2386ZM74.7253 50.863C74.8342 50.402 75.0103 49.5192 75.2444 48.2563L73.2779 47.8918C73.0431 49.1581 72.8751 49.9959 72.7789 50.4032L74.7253 50.863ZM75.2448 48.254C75.3567 47.6419 75.4834 46.9415 75.6296 46.1372L73.6619 45.7794C73.5151 46.5866 73.3892 47.2833 73.2774 47.8942L75.2448 48.254ZM74.6458 46.9583H74.7246V44.9583H74.6458V46.9583ZM73.7366 46.1133L73.9362 47.3849L75.912 47.0748L75.7125 45.8032L73.7366 46.1133ZM73.9364 47.3861L74.0097 47.8493L75.9851 47.537L75.9119 47.0737L73.9364 47.3861ZM74.0144 47.8766L74.4171 50.0346L76.3831 49.6677L75.9804 47.5097L74.0144 47.8766ZM74.4284 50.0871L76.1643 57.2365L78.1078 56.7646L76.3719 49.6152L74.4284 50.0871ZM77.136 58.0005H82.7904V56.0005H77.136V58.0005ZM83.7532 57.2707L87.9629 42.2705L86.0373 41.7301L81.8276 56.7303L83.7532 57.2707ZM87.0001 41.0003H81.8992V43.0003H87.0001V41.0003ZM82.8992 42.0003V42.0001H80.8992V42.0003H82.8992Z" fill="#27292D" mask="url(#path-5-inside-1)"/>
</svg>
