<svg width="100" height="108" viewBox="0 0 100 108" fill="none" xmlns="http://www.w3.org/2000/svg">
<path d="M49.9994 0C77.6132 0 100 22.3863 100 49.9994C100 77.6138 77.6132 99.9995 49.9994 99.9995C22.3856 99.9995 0 77.6138 0 49.9994C0 22.3863 22.3856 0 49.9994 0Z" fill="#959698"/>
<path d="M12.1751 46.702L7.65847 30.5019H12.5701L13.9117 36.7084C14.3645 38.9605 14.6237 40.8145 14.6933 42.2757L14.716 42.7519H15.1928H15.2874H15.7719L15.7871 42.2677C15.8149 41.3881 16.0901 39.6597 16.628 37.0475L17.9974 31.2205L17.9976 31.2199L18.1654 30.5017H24.068L25.4747 37.1328L25.4747 37.1329C25.9459 39.3515 26.2397 41.0628 26.3607 42.2793L26.3859 42.5319L26.5965 42.6559L26.6071 42.6631C26.614 42.6677 26.6247 42.6747 26.6378 42.6824L26.7553 42.7518H26.8919H26.957H27.419L27.4555 42.2912C27.5155 41.5334 27.6173 40.5822 27.7636 39.4386L27.7638 39.4369C27.9053 38.3003 28.0639 37.3972 28.2315 36.7273L28.2315 36.7273L28.2331 36.7204L29.696 30.5015H32.3654H32.8274H34.4901L33.8557 32.7665L33.8555 32.7672L33.5029 34.0182L33.5027 34.0188L30.5192 44.6554L30.5192 44.6555L29.9456 46.702H24.2302L22.3397 38.899L22.0606 37.4108L22.0604 37.4098L21.8774 36.4447L21.5699 34.4635L21.5042 34.0402H21.0758H20.9814H20.5635L20.4893 34.4515C20.4598 34.6154 20.431 34.7753 20.4029 34.9314C20.315 35.4205 20.2337 35.8724 20.1558 36.2937L20.1556 36.2946C19.8294 38.076 19.6032 39.2367 19.4708 39.7827C19.4707 39.7827 19.4707 39.7827 19.4707 39.7827L17.7795 46.702H12.1751Z" fill="#F3F3F3" stroke="#27292D"/>
<path d="M62.4294 34.0168L62.4294 34.017L62.1293 35.088L62.1292 35.0882L58.8702 46.7005H53.1546L51.2642 38.8978L50.806 36.4428L50.6309 35.3487L50.6305 35.3457L50.4946 34.4626L50.4294 34.0387H50.0005H49.9103H49.496L49.419 34.4458C49.3597 34.7591 49.307 35.0528 49.2565 35.3364C48.8366 37.6579 48.5493 39.1371 48.3973 39.7824C48.3972 39.783 48.397 39.7837 48.3968 39.7844L46.7044 46.7005H42.2025H41.7888H41.1012L40.9374 46.1173L40.9371 46.1163L37.9227 35.3051L37.9225 35.3042L37.8324 34.9786L37.8321 34.9775L37.5652 34.0212L37.5652 34.0211L36.5833 30.5003H38.2489H41.4968L42.8383 36.7068C43.2699 38.8563 43.5193 40.633 43.6035 42.0657L43.6035 42.0659C43.6068 42.1208 43.6097 42.154 43.612 42.1808C43.6146 42.2098 43.6165 42.2314 43.6174 42.2647L43.6313 42.7505H44.1172H44.2139H44.7029L44.7138 42.2615C44.7149 42.2106 44.7188 42.1545 44.7236 42.0844C44.7255 42.0574 44.7275 42.0283 44.7296 41.9967C44.7963 41.0473 45.0665 39.4101 45.5526 37.046L47.0916 30.5002H50.6997H52.9946L54.4014 37.1313C54.8747 39.3623 55.1683 41.0822 55.2916 42.3006L55.3371 42.7503H55.7891H55.8815H56.3409L56.3797 42.2925C56.4441 41.532 56.5442 40.5793 56.6882 39.4362L56.6883 39.4355C56.8297 38.2988 56.9883 37.3957 57.1559 36.7258L57.156 36.7258L57.1576 36.7189L58.6208 30.5H61.7309H61.752H63.4165L62.4294 34.0168ZM55.8823 42.2408L56.2865 42.1999C56.2365 41.7054 56.1602 41.137 56.0577 40.4949C56.0975 40.1437 56.1422 39.77 56.1921 39.3737C56.3349 38.2264 56.4965 37.3014 56.6709 36.6044L55.8823 42.2408Z" fill="#F3F3F3" stroke="#27292D"/>
<path d="M87.5469 30.5003H92.3402L87.7937 46.7004H82.0822L80.1877 38.8976L79.7296 36.4432L79.6468 35.9193L79.6467 35.9188L79.4179 34.4612L79.3516 34.0388H78.924H78.8336H78.4163L78.3417 34.4493C78.2818 34.7786 78.2249 35.0921 78.1707 35.3909C78.0727 35.9309 77.9834 36.423 77.9009 36.874C77.6323 38.3228 77.4372 39.2973 77.3227 39.7823C77.3226 39.7829 77.3224 39.7836 77.3223 39.7842L75.6278 46.7006H70.0253L69.3967 44.4503L69.3966 44.4499L67.9522 39.261L67.9521 39.2606L66.4889 34.0214L66.4888 34.021L65.5086 30.5003H67.1767H70.4203L71.3157 34.642L71.3157 34.642L71.7623 36.7071C72.1935 38.8393 72.4409 40.6057 72.5251 42.0301L72.525 42.0301L72.5259 42.0413C72.5268 42.0516 72.5276 42.0618 72.5284 42.0717C72.5346 42.1463 72.5399 42.211 72.5414 42.2647L72.5554 42.7504H73.0412H73.14H73.6309L73.6399 42.2595C73.6415 42.1697 73.6474 42.0596 73.657 41.9415L73.6571 41.9399C73.7322 40.9828 74.0008 39.3576 74.4765 37.0462L76.0177 30.5003H81.9189L83.3252 37.1313C83.7984 39.3625 84.0924 41.0824 84.2157 42.3007L84.2612 42.7504H84.7131H84.8053H85.2647L85.3035 42.2926C85.368 41.5322 85.468 40.5797 85.6141 39.4372L85.6144 39.4347C85.754 38.2982 85.9125 37.3966 86.0835 36.7285L86.0836 36.7286L86.0859 36.7189L87.5469 30.5003Z" fill="#F3F3F3" stroke="#27292D"/>
<path d="M29.2378 68.4819L29.2355 68.4819C28.2397 68.4775 27.2607 68.2252 26.3868 67.7478C25.5129 67.2703 24.7716 66.5829 24.2299 65.7473L23.7293 64.9753L24.6494 64.9753L28.7378 64.9753V59.9849L24.6494 59.9849H23.7293L24.2299 59.2129C24.7716 58.3774 25.5129 57.6899 26.3868 57.2124C27.2607 56.735 28.2397 56.4827 29.2355 56.4783L29.2378 56.4783L37.734 56.4783L29.2378 68.4819ZM29.2378 68.4819L37.7347 68.4819L37.7347 67.9822L37.737 68.4819C38.7328 68.4775 39.7118 68.2252 40.5857 67.7478C41.4596 67.2703 42.2009 66.5829 42.7427 65.7473L43.2432 64.9753H42.3231L38.2347 64.9753M29.2378 68.4819L38.2347 64.9753M38.2347 64.9753L38.2348 59.9849L42.3231 59.9849L43.2367 59.9849L42.7443 59.2154C42.2064 58.3749 41.4654 57.6835 40.5897 57.2051C39.7142 56.7269 38.7323 56.4769 37.7347 56.4783L38.2347 64.9753ZM82.2859 59.6147L82.3854 59.9849L82.7688 59.9849L92.4651 59.9849L92.4651 64.9753L82.7688 64.9753L82.3854 64.9753L82.2859 65.3455C81.6607 67.6717 80.2876 69.7276 78.3784 71.1962C76.4691 72.6648 74.1298 73.4646 71.7211 73.4723L63.2257 73.4723L63.2243 73.4723C60.8127 73.4792 58.4671 72.6852 56.5557 71.2149C54.6442 69.7445 53.2751 67.6811 52.6633 65.3484L52.5654 64.9753L52.1796 64.9753H48.7808L48.3975 64.9753L48.298 65.3455C47.6727 67.6717 46.2996 69.7276 44.3904 71.1962C42.4813 72.6648 40.1422 73.4645 37.7336 73.4723C37.7334 73.4723 37.7333 73.4723 37.7332 73.4723L29.2378 73.4723L29.2363 73.4723C26.8248 73.4792 24.4792 72.6852 22.5677 71.2149C20.6563 69.7445 19.2872 67.6811 18.6753 65.3484L18.5775 64.9753L18.1917 64.9753L8.49531 64.9753L8.49531 59.9849L18.1917 59.9849L18.575 59.9849L18.6746 59.6147C19.2998 57.2885 20.6729 55.2326 22.5821 53.764C24.4912 52.2954 26.8304 51.4957 29.2389 51.4879C29.2391 51.4879 29.2392 51.4879 29.2394 51.4879L37.7332 51.4879C37.7336 51.4879 37.734 51.4879 37.7344 51.4879C40.1427 51.4958 42.4815 52.2956 44.3904 53.764C46.2996 55.2326 47.6727 57.2885 48.298 59.6147L48.3975 59.9849H48.7808H52.1796H52.563L52.6625 59.6147C53.2877 57.2885 54.6608 55.2326 56.57 53.764C58.4789 52.2956 60.8177 51.4958 63.226 51.4879C63.2264 51.4879 63.2269 51.4879 63.2273 51.4879L71.7211 51.4879C71.7212 51.4879 71.7214 51.4879 71.7215 51.4879C74.1301 51.4957 76.4693 52.2954 78.3784 53.764C80.2876 55.2326 81.6607 57.2885 82.2859 59.6147ZM63.2235 68.4819L63.2257 68.4819L71.7227 68.4819L71.7227 67.9819L71.7249 68.4819C72.7207 68.4775 73.6997 68.2252 74.5736 67.7478C75.4475 67.2703 76.1888 66.5829 76.7306 65.7473L77.2312 64.9753L76.3111 64.9753L72.2227 64.9753V59.9849L76.3111 59.9849L77.2246 59.9849L76.7322 59.2154C76.1943 58.3749 75.4533 57.6835 74.5776 57.2051C73.7019 56.7267 72.7198 56.4768 71.7219 56.4783L63.2257 56.4783L63.2235 56.4783C62.2277 56.4827 61.2487 56.735 60.3747 57.2124C59.5008 57.6899 58.7596 58.3774 58.2178 59.2129L57.7172 59.9849H58.6373L62.7257 59.9849L62.7257 64.9753L58.6373 64.9753H57.7172L58.2178 65.7473C58.7596 66.5829 59.5008 67.2703 60.3747 67.7478C61.2487 68.2252 62.2277 68.4775 63.2235 68.4819Z" fill="#F3F3F3" stroke="#27292D"/>
</svg>
