<svg width="100" height="100" viewBox="0 0 100 100" fill="none" xmlns="http://www.w3.org/2000/svg">
<path d="M49.9994 0C77.6132 0 100 22.3863 100 49.9994C100 77.6138 77.6132 99.9995 49.9994 99.9995C22.3856 99.9995 0 77.6138 0 49.9994C0 22.3863 22.3856 0 49.9994 0Z" fill="#0099CC"/>
<path d="M16.7057 66.6307L15.8893 66.6371L16.2661 67.3614C21.6761 77.7598 31.7248 85.4217 43.7466 87.3902L44.9475 87.5868L44.2318 86.6027C39.8281 80.5477 36.5948 73.8052 34.6689 66.8584L34.5665 66.4889L34.1831 66.492L16.7057 66.6307ZM38.6258 37.7097H38.2195L38.1364 38.1073C36.5271 45.8042 36.5272 53.78 38.1362 61.545L38.2193 61.9461L38.629 61.9435L60.5451 61.8048L60.956 61.8022L61.0331 61.3986C62.5013 53.7076 62.5019 45.8038 60.8926 38.1073L60.8095 37.7097H60.4032H38.6258ZM49.1198 85.6086L49.5169 86.1191L49.911 85.6062C54.3166 79.8719 57.5345 73.5767 59.5633 67.0006L59.7645 66.3483L59.0818 66.3532L40.0093 66.4919L39.3437 66.4968L39.5337 67.1347C41.4939 73.7155 44.7136 79.9434 49.1198 85.6086ZM54.6597 86.8092L53.9604 87.7628L55.1317 87.6001C67.7822 85.8431 78.4644 77.9015 83.9462 66.8676L84.3081 66.1391L83.4947 66.1452L64.8382 66.2839L64.458 66.2867L64.3591 66.6539C62.4331 73.8076 59.2003 80.6174 54.6597 86.8092ZM85.7906 61.5968L86.1599 61.5942L86.266 61.2404C87.3189 57.7309 87.9516 53.9373 87.9516 50C87.9516 45.8524 87.2488 41.7755 85.9831 38.0489L85.8679 37.7097H85.5097H66.021H65.4165L65.5298 38.3034C66.975 45.8736 67.0435 53.5792 65.6677 61.146L65.5598 61.7397L66.1632 61.7355L85.7906 61.5968ZM83.1516 33.1613H83.975L83.5953 32.4307C78.043 21.7479 67.5707 14.0866 55.1301 12.3997L53.9699 12.2424L54.6585 13.1892C59.0614 19.2432 62.227 25.9177 64.223 32.8006L64.3276 33.1613H64.7032H83.1516ZM58.9468 33.1613H59.6286L59.4236 32.511C57.3946 26.0742 54.2461 19.9874 49.9097 14.3921L49.5145 13.8822L49.1193 14.3921C44.7829 19.9874 41.6344 26.0742 39.6054 32.511L39.4004 33.1613H40.0823H58.9468ZM44.2324 13.3965L44.945 12.4124L43.7462 12.6099C31.7962 14.5781 21.8164 22.0994 16.4055 32.4293L16.022 33.1613H16.8484H34.3258H34.705L34.8073 32.7961C36.7329 25.9189 39.8969 19.3836 44.2324 13.3965ZM33.4993 38.3026L33.6115 37.7097H33.0081H14.4903H14.1321L14.0169 38.0489C12.7512 41.7755 12.0484 45.8524 12.0484 50C12.0484 54.0748 12.6808 58.0131 13.9475 61.743L14.0636 62.0849L14.4247 62.0822L32.9425 61.9435L33.536 61.9391L33.4308 61.3549C32.0543 53.7151 32.0545 45.9396 33.4993 38.3026ZM92.5 50C92.5 73.4432 73.4432 92.5 50 92.5C26.5568 92.5 7.5 73.4432 7.5 50C7.5 26.5568 26.5568 7.5 50 7.5C73.4432 7.5 92.5 26.5568 92.5 50Z" fill="white" stroke="white"/>
</svg>
